<svg width="25" height="24" viewBox="0 0 25 24" fill="none" xmlns="http://www.w3.org/2000/svg">
<g id="Queue-active">
<g id="tray_arrow_up_fill" clip-path="url(#clip0_4716_194659)">
<path id="Vector" d="M12.0883 15.0787C12.5202 15.0787 12.8818 14.7171 12.8818 14.2953V4.06979L12.8215 2.56307L13.4945 3.27625L15.0213 4.89347C15.1619 5.05418 15.3728 5.13449 15.5637 5.13449C15.9856 5.13449 16.2969 4.84324 16.2969 4.43142C16.2969 4.22048 16.2065 4.05972 16.0559 3.90908L12.6708 0.624508C12.4599 0.423508 12.2891 0.363251 12.0883 0.363251C11.8773 0.363251 11.7065 0.423508 11.5057 0.624508L8.11056 3.90908C7.95988 4.05972 7.86949 4.22048 7.86949 4.43142C7.86949 4.84324 8.17082 5.13449 8.59271 5.13449C8.78355 5.13449 9.00452 5.05418 9.14514 4.89347L10.672 3.27625L11.3449 2.56307L11.2847 4.06979V14.2953C11.2847 14.7171 11.6564 15.0787 12.0883 15.0787ZM3.38959 23.6367H20.7769C22.8762 23.6367 23.9309 22.5921 23.9309 20.5229V14.9783C23.9309 14.0743 23.8003 13.6423 23.3584 13.0698L19.9833 8.76064C18.7679 7.20372 18.2857 6.89232 16.5079 6.89232H14.73V8.29859H16.6184C17.3516 8.29859 17.8338 8.42918 18.4063 9.16242L21.8717 13.6624C22.2634 14.1747 22.1328 14.3756 21.5804 14.3756H15.3829C14.8304 14.3756 14.5592 14.7975 14.5592 15.2495V15.2796C14.5592 16.5151 13.5949 17.8209 12.0782 17.8209C10.5715 17.8209 9.60722 16.5151 9.60722 15.2796V15.2495C9.60722 14.7975 9.33602 14.3756 8.78355 14.3756H2.59605C2.02352 14.3756 1.93309 14.1345 2.29472 13.6624L5.74005 9.19255C6.33264 8.43921 6.81482 8.29859 7.54806 8.29859H9.44651V6.89232H7.65855C5.88066 6.89232 5.40855 7.20372 4.16304 8.79076L0.808094 13.0698C0.366151 13.6423 0.235565 14.0743 0.235565 14.9783V20.5229C0.235565 22.6022 1.30031 23.6367 3.38959 23.6367Z" fill="#0D0D0D"/>
</g>
</g>
<defs>
<clipPath id="clip0_4716_194659">
<rect width="24" height="24" fill="white" transform="translate(0.083252)"/>
</clipPath>
</defs>
</svg>
