<svg width="25" height="24" viewBox="0 0 25 24" fill="none" xmlns="http://www.w3.org/2000/svg">
<g id="Settings-active">
<g id="Component 18">
<path id="Vector" fill-rule="evenodd" clip-rule="evenodd" d="M9.93442 22.0429C8.88224 21.81 7.89062 21.4161 6.98677 20.8882L7.03985 19.849C7.11224 18.4317 6.01822 17.3416 4.60465 17.4138L3.45586 17.4725C2.91791 16.618 2.5022 15.6788 2.23329 14.6795L3.1349 13.8655C4.18828 12.9145 4.18549 11.3701 3.1349 10.4216L2.17349 9.55365C2.41212 8.5755 2.79063 7.65215 3.28662 6.80601L4.60465 6.87333C6.02196 6.94572 7.11205 5.8517 7.03985 4.43813L6.97253 3.1201C7.81867 2.62411 8.74201 2.24561 9.72017 2.00697L10.5881 2.96838C11.5391 4.02176 13.0835 4.01897 14.032 2.96838L14.846 2.06677C15.8454 2.33568 16.7845 2.75139 17.639 3.28934L17.5803 4.43813C17.5079 5.85544 18.602 6.94553 20.0155 6.87333L21.0547 6.82025C21.5826 7.7241 21.9766 8.71572 22.2094 9.7679L21.4853 10.4216C20.4319 11.3726 20.4347 12.917 21.4853 13.8655L22.1539 14.4692C21.8897 15.5416 21.4572 16.5479 20.8861 17.4583L20.0155 17.4138C18.5982 17.3414 17.5081 18.4354 17.5803 19.849L17.6248 20.7196C16.7144 21.2907 15.7081 21.7232 14.6357 21.9874L14.032 21.3188C13.081 20.2654 11.5366 20.2682 10.5881 21.3188L9.93442 22.0429ZM12.1665 16.2857C14.5335 16.2857 16.4522 14.3669 16.4522 12C16.4522 9.63306 14.5335 7.71428 12.1665 7.71428C9.79958 7.71428 7.8808 9.63306 7.8808 12C7.8808 14.3669 9.79958 16.2857 12.1665 16.2857Z" fill="#0D0D0D"/>
</g>
</g>
</svg>
