<svg width="24" height="25" viewBox="0 0 24 25" fill="none" xmlns="http://www.w3.org/2000/svg">
<g id="Home-inactive">
<g id="house">
<path id="Vector" d="M5.41077 22.8937H18.5994C20.0257 22.8937 20.8595 22.0901 20.8595 20.6738V11.5031L22.1551 12.6884C22.3662 12.8893 22.5972 13.0299 22.8784 13.0299C23.3505 13.0299 23.7321 12.7386 23.7321 12.2564C23.7321 11.9551 23.6216 11.7643 23.431 11.5935L19.9453 8.40932V2.49307C19.9453 2.05108 19.6641 1.76985 19.2223 1.76985H17.9063C17.4744 1.76985 17.173 2.05108 17.173 2.49307V5.88812L13.2054 2.27209C12.8539 1.95067 12.432 1.76985 12.0001 1.76985C11.5681 1.76985 11.1463 1.95067 10.7947 2.27209L0.569242 11.5935C0.388471 11.7643 0.267914 11.9551 0.267914 12.2564C0.267914 12.7386 0.6496 13.0299 1.12171 13.0299C1.41301 13.0299 1.64401 12.8893 1.84493 12.6884L3.14067 11.5131V20.6738C3.14067 22.0901 3.97437 22.8937 5.41077 22.8937ZM14.8929 14.6069C14.8929 14.1449 14.5916 13.8536 14.1295 13.8536H9.87057C9.40853 13.8536 9.09717 14.1449 9.09717 14.6069V21.2765H5.7523C5.10944 21.2765 4.75789 20.925 4.75789 20.2721V10.0366L11.6485 3.75868C11.749 3.65822 11.8695 3.59797 12.0001 3.59797C12.1306 3.59797 12.2512 3.64819 12.3617 3.75868L19.2422 10.0366V20.2721C19.2422 20.925 18.8906 21.2765 18.2579 21.2765H14.8929V14.6069Z" fill="#8E8E93"/>
</g>
</g>
</svg>
