<svg width="25" height="25" viewBox="0 0 25 25" fill="none" xmlns="http://www.w3.org/2000/svg">
<g id="Queue-inactive">
<g id="tray_arrow_up" clip-path="url(#clip0_4716_194671)">
<path id="Vector" d="M12.0883 15.4105C12.5202 15.4105 12.8818 15.0489 12.8818 14.627V4.40158L12.8215 2.89485L13.4945 3.60804L15.0213 5.22525C15.1619 5.38597 15.3728 5.46628 15.5637 5.46628C15.9856 5.46628 16.2969 5.17502 16.2969 4.76321C16.2969 4.55227 16.2065 4.39151 16.0559 4.24087L12.6708 0.956295C12.4599 0.755295 12.2891 0.695038 12.0883 0.695038C11.8773 0.695038 11.7065 0.755295 11.5057 0.956295L8.11056 4.24087C7.95988 4.39151 7.86949 4.55227 7.86949 4.76321C7.86949 5.17502 8.17082 5.46628 8.59271 5.46628C8.78355 5.46628 9.00452 5.38597 9.14514 5.22525L10.672 3.60804L11.3449 2.89485L11.2847 4.40158V14.627C11.2847 15.0489 11.6564 15.4105 12.0883 15.4105ZM3.38959 23.9685H20.7769C22.8762 23.9685 23.9309 22.9239 23.9309 20.8547V14.9083C23.9309 14.0042 23.8104 13.5523 23.3584 12.9998L20.1843 9.09242C18.9387 7.57567 18.4867 7.22411 16.7088 7.22411H14.73V8.63038H16.8193C17.5525 8.63038 18.0146 8.77099 18.6073 9.49421L21.8717 13.5924C22.2836 14.1047 22.1328 14.3056 21.5804 14.3056H15.182C14.6697 14.3056 14.4186 14.6973 14.4186 15.1192V15.1493C14.4186 16.3145 13.5045 17.55 12.0782 17.55C10.6619 17.55 9.74784 16.3145 9.74784 15.1493V15.1192C9.74784 14.6973 9.49674 14.3056 8.98446 14.3056H2.59605C2.02352 14.3056 1.91304 14.0746 2.29472 13.5924L5.53914 9.52434C6.15187 8.78102 6.61391 8.63038 7.34719 8.63038H9.44651V7.22411H7.45768C5.67975 7.22411 5.23781 7.56564 3.96212 9.12255L0.808094 12.9998C0.366151 13.5422 0.235565 14.0042 0.235565 14.9083V20.8547C0.235565 22.934 1.30031 23.9685 3.38959 23.9685ZM3.41972 22.3514C2.41524 22.3514 1.85274 21.819 1.85274 20.7743V15.7721H8.22105C8.47215 17.6504 10.0391 19.0366 12.0782 19.0366C14.1172 19.0366 15.6943 17.6404 15.9353 15.7721H22.3136V20.7743C22.3136 21.819 21.7411 22.3514 20.7467 22.3514H3.41972Z" fill="#8E8E93"/>
</g>
</g>
<defs>
<clipPath id="clip0_4716_194671">
<rect width="24" height="24" fill="white" transform="translate(0.083252 0.331787)"/>
</clipPath>
</defs>
</svg>
