<svg width="25" height="25" viewBox="0 0 25 25" fill="none" xmlns="http://www.w3.org/2000/svg">
<g id="Settings-inactive">
<g id="Component 18">
<path id="Vector" d="M9.72017 2.33876L10.5881 3.30017C11.5391 4.35355 13.0835 4.35076 14.032 3.30017L14.846 2.39856C15.8454 2.66747 16.7845 3.08318 17.639 3.62113L17.5803 4.76992C17.5079 6.18723 18.602 7.27731 20.0155 7.20511L21.0547 7.15204C21.5826 8.05588 21.9766 9.04751 22.2094 10.0997L21.4853 10.7534C20.4319 11.7044 20.4347 13.2488 21.4853 14.1973L22.1539 14.801C21.8897 15.8734 21.4572 16.8796 20.8861 17.7901L20.0155 17.7456C18.5982 17.6732 17.5081 18.7672 17.5803 20.1808L17.6248 21.0514C16.7144 21.6225 15.7081 22.055 14.6357 22.3192L14.032 21.6505C13.081 20.5972 11.5366 20.5999 10.5881 21.6505L9.93442 22.3746C8.88224 22.1418 7.89062 21.7479 6.98677 21.22L7.03985 20.1808C7.11224 18.7635 6.01822 17.6734 4.60465 17.7456L3.45586 17.8043C2.91791 16.9498 2.5022 16.0106 2.23329 15.0113L3.1349 14.1973C4.18828 13.2463 4.18549 11.7019 3.1349 10.7534L2.17349 9.88544C2.41212 8.90728 2.79063 7.98394 3.28662 7.13779L4.60465 7.20511C6.02196 7.27751 7.11205 6.18348 7.03985 4.76992L6.97253 3.45189C7.81867 2.9559 8.74201 2.57739 9.72017 2.33876ZM9.04893 3.95321C8.89568 4.01024 8.74411 4.07148 8.59437 4.13685L8.60559 4.35656C8.73491 6.88852 6.72538 8.90029 4.19129 8.77086L3.97158 8.75963C3.90622 8.90938 3.84498 9.06095 3.78794 9.2142L3.94785 9.35857C5.82966 11.0575 5.83125 13.901 3.94785 15.6013L3.87387 15.6681C3.94545 15.8457 4.02275 16.0209 4.10562 16.1934L4.19129 16.189C6.69877 16.061 8.69607 18.0306 8.60874 20.53C8.82036 20.6219 9.03559 20.7056 9.25403 20.7808C10.9135 19.0139 13.6065 18.9859 15.2984 20.7009C15.5428 20.6094 15.7828 20.5072 16.0179 20.3946C16.0063 18.0309 17.8638 16.1715 20.2293 16.1832C20.3419 15.9481 20.4441 15.708 20.5356 15.4637C18.822 13.773 18.8472 11.0801 20.6156 9.41929C20.5403 9.20086 20.4567 8.98563 20.3647 8.77401C17.907 8.85986 15.9583 6.92895 16.0193 4.47567L16.0282 4.27089C15.8556 4.18802 15.6805 4.11072 15.5028 4.03914L15.4361 4.11312C13.7371 5.99493 10.8937 5.99652 9.1933 4.11312L9.04893 3.95321ZM12.1665 8.47464C14.2968 8.47464 16.0237 10.2015 16.0237 12.3318C16.0237 14.462 14.2968 16.1889 12.1665 16.1889C10.0363 16.1889 8.30937 14.462 8.30937 12.3318C8.30937 10.2015 10.0363 8.47464 12.1665 8.47464ZM12.1665 9.76035C10.7464 9.76035 9.59509 10.9116 9.59509 12.3318C9.59509 13.7519 10.7464 14.9032 12.1665 14.9032C13.5867 14.9032 14.7379 13.7519 14.7379 12.3318C14.7379 10.9116 13.5867 9.76035 12.1665 9.76035Z" fill="#8E8E93"/>
</g>
</g>
</svg>
